<svg id="Layer_1" data-name="Layer 1" xmlns="http://www.w3.org/2000/svg" xmlns:xlink="http://www.w3.org/1999/xlink" viewBox="0 0 24.76 40"><defs><style>.cls-1,.cls-2,.cls-3,.cls-4{fill:#f60100;}.cls-1,.cls-2,.cls-3,.cls-4,.cls-5,.cls-6,.cls-7,.cls-8{stroke-linecap:round;stroke-width:1.1px;}.cls-1{stroke:url(#linear-gradient);}.cls-2{stroke:url(#linear-gradient-2);}.cls-3{stroke:url(#linear-gradient-3);}.cls-4{stroke:url(#linear-gradient-4);}.cls-5,.cls-6,.cls-7,.cls-8{fill:#0072ff;}.cls-5{stroke:url(#linear-gradient-9);}.cls-6{stroke:url(#linear-gradient-10);}.cls-7{stroke:url(#linear-gradient-11);}.cls-8{stroke:url(#linear-gradient-12);}</style><linearGradient id="linear-gradient" x1="12.38" y1="14.98" x2="12.38" y2="21.16" gradientUnits="userSpaceOnUse"><stop offset="0" stop-color="#aa0e00"/><stop offset="1" stop-color="#ff0007"/></linearGradient><linearGradient id="linear-gradient-2" x1="12.5" y1="5.87" x2="12.5" y2="10.45" xlink:href="#linear-gradient"/><linearGradient id="linear-gradient-3" x1="12.5" y1="31.29" x2="12.5" y2="40.68" xlink:href="#linear-gradient"/><linearGradient id="linear-gradient-4" x1="12.38" y1="5.02" x2="12.38" y2="6.51" xlink:href="#linear-gradient"/><linearGradient id="linear-gradient-9" x1="12.38" y1="14.98" x2="12.38" y2="21.16" gradientUnits="userSpaceOnUse"><stop offset="0" stop-color="#6ad3ff"/><stop offset="1" stop-color="#0e00bf"/></linearGradient><linearGradient id="linear-gradient-10" x1="12.5" y1="5.87" x2="12.5" y2="10.45" xlink:href="#linear-gradient-9"/><linearGradient id="linear-gradient-11" x1="12.5" y1="31.29" x2="12.5" y2="40.68" xlink:href="#linear-gradient-9"/><linearGradient id="linear-gradient-12" x1="12.38" y1="5.02" x2="12.38" y2="6.51" xlink:href="#linear-gradient-9"/></defs><title>Gym_EX</title><rect class="cls-1" x="8.26" y="8.78" width="8.24" height="11.96"/><path class="cls-2" d="M16.16,10h2.25c-.71-6,.24-8.58-5.91-8.58S7.3,4,6.59,10h9.57Z" transform="translate(-0.12 -0.86)"/><path class="cls-3" d="M5.75,21.6H3.54c.35,5.45,1.35,5.91,6.59,7v9.58l2.31,2,2.31-2V28.58c5.29-1,6.35-1.49,6.71-7H5.75Z" transform="translate(-0.12 -0.86)"/><rect class="cls-4" x="0.55" y="3.94" width="23.66" height="2.04"/><rect class="cls-1" x="8.26" y="8.78" width="8.24" height="11.96"/><path class="cls-2" d="M16.16,10h2.25c-.71-6,.24-8.58-5.91-8.58S7.3,4,6.59,10h9.57Z" transform="translate(-0.12 -0.86)"/><path class="cls-3" d="M5.75,21.6H3.54c.35,5.45,1.35,5.91,6.59,7v9.58l2.31,2,2.31-2V28.58c5.29-1,6.35-1.49,6.71-7H5.75Z" transform="translate(-0.12 -0.86)"/><rect class="cls-4" x="0.55" y="3.94" width="23.66" height="2.04"/><rect class="cls-5" x="8.26" y="8.78" width="8.24" height="11.96"/><path class="cls-6" d="M16.16,10h2.25c-.71-6,.24-8.58-5.91-8.58S7.3,4,6.59,10h9.57Z" transform="translate(-0.12 -0.86)"/><path class="cls-7" d="M5.75,21.6H3.54c.35,5.45,1.35,5.91,6.59,7v9.58l2.31,2,2.31-2V28.58c5.29-1,6.35-1.49,6.71-7H5.75Z" transform="translate(-0.12 -0.86)"/><rect class="cls-8" x="0.55" y="3.94" width="23.66" height="2.04"/><path d="M8.22,17.28A.51.51,0,0,0,8.07,17a.54.54,0,0,0-.39-.12H4.33v1.67h5.78a.27.27,0,0,0,.22-.09,1.18,1.18,0,0,0,.11-.45h.21v3.08h-.21a.54.54,0,0,0-.11-.29.42.42,0,0,0-.22-.05h-9v-.22a.79.79,0,0,0,.42-.11.28.28,0,0,0,.08-.21V11.81a.24.24,0,0,0-.08-.2.69.69,0,0,0-.42-.12v-.22h9a.25.25,0,0,0,.22-.1,1,1,0,0,0,.11-.4h.21V13.9h-.21a1,1,0,0,0-.11-.4.25.25,0,0,0-.22-.1H4.33v1.49H7.68a.54.54,0,0,0,.39-.12.48.48,0,0,0,.15-.29h.22v2.8Z" transform="translate(-0.12 -0.86)"/><path d="M12.52,20.52q.17,0,.42-.3l3.6-4.29-3.35-4.21a.74.74,0,0,0-.23-.19.39.39,0,0,0-.18,0v-.22H17v.22a1.78,1.78,0,0,0-.33,0,.17.17,0,0,0-.1.18,1.25,1.25,0,0,0,.23.34c.16.19.33.41.53.64l.56.67.33.4.38-.44.55-.65.5-.62a1.21,1.21,0,0,0,.23-.34.19.19,0,0,0-.14-.19.75.75,0,0,0-.24,0v-.22h4.12v.22a.6.6,0,0,0-.45.21l-3.31,4.11,3.65,4.62a.24.24,0,0,0,.15.09h.18v.22H19.62v-.22c.22,0,.34,0,.34-.09a1.08,1.08,0,0,0-.17-.32c-.12-.17-.26-.37-.44-.6s-.36-.49-.57-.76l-.6-.78-.23.29-.38.43-.44.49-.43.5c-.13.15-.24.29-.32.4a.52.52,0,0,0-.13.25c0,.09.05.15.16.17a1.42,1.42,0,0,0,.27,0v.22H12.52Z" transform="translate(-0.12 -0.86)"/></svg>