<svg id="Layer_1" data-name="Layer 1" xmlns="http://www.w3.org/2000/svg" xmlns:xlink="http://www.w3.org/1999/xlink" viewBox="0 0 24.76 40"><defs><style>.cls-1,.cls-2,.cls-3,.cls-4{fill:#f60100;stroke-linecap:round;stroke-width:1.1px;}.cls-1{stroke:url(#linear-gradient);}.cls-2{stroke:url(#linear-gradient-2);}.cls-3{stroke:url(#linear-gradient-3);}.cls-4{stroke:url(#linear-gradient-4);}</style><linearGradient id="linear-gradient" x1="12.38" y1="14.98" x2="12.38" y2="21.16" gradientUnits="userSpaceOnUse"><stop offset="0" stop-color="#aa0e00"/><stop offset="1" stop-color="#ff0007"/></linearGradient><linearGradient id="linear-gradient-2" x1="12.5" y1="5.87" x2="12.5" y2="10.45" xlink:href="#linear-gradient"/><linearGradient id="linear-gradient-3" x1="12.5" y1="31.29" x2="12.5" y2="40.68" xlink:href="#linear-gradient"/><linearGradient id="linear-gradient-4" x1="12.38" y1="5.02" x2="12.38" y2="6.51" xlink:href="#linear-gradient"/></defs><title>Gym_active</title><rect class="cls-1" x="8.26" y="8.78" width="8.24" height="11.96"/><path class="cls-2" d="M16.16,10h2.25c-.71-6,.24-8.58-5.91-8.58S7.3,4,6.59,10h9.57Z" transform="translate(-0.12 -0.86)"/><path class="cls-3" d="M5.75,21.6H3.54c.35,5.45,1.35,5.91,6.59,7v9.58l2.31,2,2.31-2V28.58c5.29-1,6.35-1.49,6.71-7H5.75Z" transform="translate(-0.12 -0.86)"/><rect class="cls-4" x="0.55" y="3.94" width="23.66" height="2.04"/></svg>