<svg xmlns="http://www.w3.org/2000/svg" xmlns:xlink="http://www.w3.org/1999/xlink" viewBox="0 0 12.49 20.2"><defs><style>.cls-1,.cls-2,.cls-3{fill:#ff1f05;stroke-linecap:round;stroke-width:0.55px;}.cls-1{stroke:url(#linear-gradient);}.cls-2{stroke:url(#linear-gradient-2);}.cls-3{stroke:url(#linear-gradient-3);}</style><linearGradient id="linear-gradient" x1="6.21" y1="6.02" x2="6.21" y2="3.71" gradientUnits="userSpaceOnUse"><stop offset="0" stop-color="#a6272d"/><stop offset="1" stop-color="#ed1c24"/></linearGradient><linearGradient id="linear-gradient-2" x1="6.24" y1="2.8" x2="6.24" y2="0.05" xlink:href="#linear-gradient"/><linearGradient id="linear-gradient-3" x1="6.24" y1="13.05" x2="6.24" y2="6.49" xlink:href="#linear-gradient"/></defs><title>Asset 2</title><g id="Layer_2" data-name="Layer 2"><g id="Layer_1-2" data-name="Layer 1"><path class="cls-1" d="M6.21,3.94A2.17,2.17,0,1,0,8.38,6.11,2.17,2.17,0,0,0,6.21,3.94Z"/><path class="cls-2" d="M2.43,5.54a3.87,3.87,0,0,1,7.62,0h2.12a6,6,0,0,0-11.85,0Z"/><path class="cls-3" d="M10.1,6.64a3.88,3.88,0,0,1-7.71,0H.29A6,6,0,0,0,5.07,12.1v6.75l1.14,1,1.15-1V12.1A6,6,0,0,0,12.2,6.64Z"/></g></g></svg>