<svg xmlns="http://www.w3.org/2000/svg" xmlns:xlink="http://www.w3.org/1999/xlink" viewBox="0 0 12.55 20.31"><defs><style>.cls-1,.cls-2,.cls-3{fill:#0089fd;stroke-linecap:round;stroke-width:0.55px;}.cls-1{stroke:url(#linear-gradient);}.cls-2{stroke:url(#linear-gradient-2);}.cls-3{stroke:url(#linear-gradient-3);}</style><linearGradient id="linear-gradient" x1="6.25" y1="6.22" x2="6.25" y2="8.54" gradientUnits="userSpaceOnUse"><stop offset="0" stop-color="#2e6c97"/><stop offset="1" stop-color="#3883b7"/></linearGradient><linearGradient id="linear-gradient-2" x1="6.28" y1="3.02" x2="6.28" y2="5.78" xlink:href="#linear-gradient"/><linearGradient id="linear-gradient-3" x1="6.28" y1="13.59" x2="6.28" y2="20.18" xlink:href="#linear-gradient"/></defs><title>Asset 5</title><g id="Layer_2" data-name="Layer 2"><g id="Layer_1-2" data-name="Layer 1"><path class="cls-1" d="M6.25,4A2.18,2.18,0,1,0,8.42,6.14,2.18,2.18,0,0,0,6.25,4Z"/><path class="cls-2" d="M2.45,5.56a3.9,3.9,0,0,1,7.66,0h2.12a6,6,0,0,0-11.91,0Z"/><path class="cls-3" d="M10.15,6.67a3.9,3.9,0,0,1-7.75,0H.29a6,6,0,0,0,4.8,5.49v6.78l1.16,1,1.15-1V12.17a6,6,0,0,0,4.86-5.5Z"/></g></g></svg>